<?xml version="1.0" encoding="UTF-8"?>
<!DOCTYPE svg PUBLIC "-//W3C//DTD SVG 1.1//EN" "http://www.w3.org/Graphics/SVG/1.1/DTD/svg11.dtd">
<svg xmlns="http://www.w3.org/2000/svg" version="1.1" width="3442px" height="3224px" style="shape-rendering:geometricPrecision; text-rendering:geometricPrecision; image-rendering:optimizeQuality; fill-rule:evenodd; clip-rule:evenodd" xmlns:xlink="http://www.w3.org/1999/xlink">
<g><path style="opacity:1" fill="#fb5252" d="M 1648.5,41.5 C 1973.29,34.5031 2270.62,120.67 2540.5,300C 2662.35,382.652 2770.68,480.819 2865.5,594.5C 2462.06,410.614 2058.73,226.447 1655.5,42C 1653.19,41.5034 1650.86,41.3367 1648.5,41.5 Z"/></g>
<g><path style="opacity:1" fill="#fa5050" d="M 1648.5,41.5 C 1650.86,41.3367 1653.19,41.5034 1655.5,42C 2058.73,226.447 2462.06,410.614 2865.5,594.5C 2917.51,656.843 2963.84,723.176 3004.5,793.5C 2536.48,580.102 2068.48,366.602 1600.5,153C 1537.41,123.785 1474.41,94.6179 1411.5,65.5C 1489.84,51.0989 1568.84,43.0989 1648.5,41.5 Z"/></g>
<g><path style="opacity:1" fill="#f84c4c" d="M 1411.5,65.5 C 1474.41,94.6179 1537.41,123.785 1600.5,153C 2068.48,366.602 2536.48,580.102 3004.5,793.5C 3068.48,901.067 3118.15,1015.07 3153.5,1135.5C 3152.13,1135.66 3150.79,1135.49 3149.5,1135C 2954.92,1045.88 2760.25,957.042 2565.5,868.5C 2565.33,857.162 2565.5,845.828 2566,834.5C 2601.95,818.636 2621.12,790.97 2623.5,751.5C 2621.09,712.821 2602.43,685.321 2567.5,669C 2525.29,655.174 2490.12,665.341 2462,699.5C 2441.53,731.338 2440.2,764.004 2458,797.5C 2462.58,804.914 2468.08,811.581 2474.5,817.5C 2453.52,808.346 2432.52,799.179 2411.5,790C 1962.49,583.994 1513.16,378.828 1063.5,174.5C 1174.8,123.737 1290.8,87.404 1411.5,65.5 Z"/></g>
<g><path style="opacity:1" fill="#f74a4b" d="M 1063.5,174.5 C 1513.16,378.828 1962.49,583.994 2411.5,790C 2432.52,799.179 2453.52,808.346 2474.5,817.5C 2482.58,824.394 2491.58,829.894 2501.5,834C 2502.41,835.699 2502.74,837.533 2502.5,839.5C 2019.83,619.164 1537.16,398.831 1054.5,178.5C 1057.09,176.375 1060.09,175.042 1063.5,174.5 Z"/></g>
<g><path style="opacity:1" fill="#f54747" d="M 1054.5,178.5 C 1537.16,398.831 2019.83,619.164 2502.5,839.5C 2502.5,951.167 2502.5,1062.83 2502.5,1174.5C 2395.17,1125.83 2287.83,1077.17 2180.5,1028.5C 2086.31,959.586 1981.97,911.919 1867.5,885.5C 1848.6,875.889 1829.27,867.055 1809.5,859C 1453.38,695.605 1097.05,532.771 740.5,370.5C 836.879,293.929 941.546,229.929 1054.5,178.5 Z"/></g>
<g><path style="opacity:1" fill="#f34445" d="M 740.5,370.5 C 1097.05,532.771 1453.38,695.605 1809.5,859C 1829.27,867.055 1848.6,875.889 1867.5,885.5C 1847.51,881.613 1827.51,877.946 1807.5,874.5C 1447.82,709.662 1087.82,545.328 727.5,381.5C 731.515,377.487 735.848,373.821 740.5,370.5 Z"/></g>
<g><path style="opacity:1" fill="#f14141" d="M 727.5,381.5 C 1087.82,545.328 1447.82,709.662 1807.5,874.5C 1622.8,849.558 1449.13,882.225 1286.5,972.5C 1163.24,915.073 1039.57,858.407 915.5,802.5C 933.02,775.853 936.186,747.52 925,717.5C 905.16,676.826 872.66,658.993 827.5,664C 790.859,671.809 767.192,693.643 756.5,729.5C 670.496,690.164 584.496,650.831 498.5,611.5C 566.13,526.203 642.463,449.537 727.5,381.5 Z"/></g>
<g><path style="opacity:1" fill="#f03e3f" d="M 498.5,611.5 C 584.496,650.831 670.496,690.164 756.5,729.5C 755.332,736.611 754.332,743.611 753.5,750.5C 753.799,748.396 753.466,746.396 752.5,744.5C 666.833,705.333 581.167,666.167 495.5,627C 492.904,625.864 490.237,625.031 487.5,624.5C 490.821,619.848 494.487,615.515 498.5,611.5 Z"/></g>
<g><path style="opacity:1" fill="#ee3c3c" d="M 487.5,624.5 C 490.237,625.031 492.904,625.864 495.5,627C 581.167,666.167 666.833,705.333 752.5,744.5C 753.466,746.396 753.799,748.396 753.5,750.5C 755.573,790.342 774.739,818.342 811,834.5C 811.5,894.166 811.667,953.832 811.5,1013.5C 661.938,945.72 512.605,877.387 363.5,808.5C 400.378,744.05 441.711,682.717 487.5,624.5 Z"/></g>
<g><path style="opacity:1" fill="#f03e3f" d="M 915.5,802.5 C 1039.57,858.407 1163.24,915.073 1286.5,972.5C 1281.2,975.819 1275.87,979.153 1270.5,982.5C 1267.9,980.19 1264.9,978.357 1261.5,977C 1142.85,922.73 1024.18,868.563 905.5,814.5C 909.21,810.792 912.543,806.792 915.5,802.5 Z"/></g>
<g><path style="opacity:1" fill="#ec3939" d="M 363.5,808.5 C 512.605,877.387 661.938,945.72 811.5,1013.5C 811.5,1050.17 811.5,1086.83 811.5,1123.5C 646.609,1047.89 481.609,972.554 316.5,897.5C 330.896,867.035 346.563,837.368 363.5,808.5 Z"/></g>
<g><path style="opacity:1" fill="#ee3c3c" d="M 905.5,814.5 C 1024.18,868.563 1142.85,922.73 1261.5,977C 1264.9,978.357 1267.9,980.19 1270.5,982.5C 1200.52,1024.44 1137.85,1075.77 1082.5,1136.5C 1013.08,1105.36 943.744,1074.03 874.5,1042.5C 874.333,973.166 874.5,903.833 875,834.5C 886.274,829.451 896.44,822.785 905.5,814.5 Z"/></g>
<g><path style="opacity:1" fill="#f54747" d="M 2565.5,868.5 C 2760.25,957.042 2954.92,1045.88 3149.5,1135C 3150.79,1135.49 3152.13,1135.66 3153.5,1135.5C 3188.64,1254.32 3208.64,1375.65 3213.5,1499.5C 2997.51,1400.84 2781.51,1302.17 2565.5,1203.5C 2565.5,1091.83 2565.5,980.167 2565.5,868.5 Z"/></g>
<g><path style="opacity:1" fill="#ea3435" d="M 316.5,897.5 C 481.609,972.554 646.609,1047.89 811.5,1123.5C 811.667,1228.17 811.5,1332.83 811,1437.5C 788.781,1449.51 768.281,1463.85 749.5,1480.5C 566.187,1396.84 382.854,1313.18 199.5,1229.5C 225.025,1113.92 264.025,1003.25 316.5,897.5 Z"/></g>
<g><path style="opacity:1" fill="#ec3939" d="M 874.5,1042.5 C 943.744,1074.03 1013.08,1105.36 1082.5,1136.5C 1059.66,1162.66 1038,1189.66 1017.5,1217.5C 969.942,1195.55 922.276,1173.89 874.5,1152.5C 874.5,1115.83 874.5,1079.17 874.5,1042.5 Z"/></g>
<g><path style="opacity:1" fill="#f24343" d="M 2180.5,1028.5 C 2287.83,1077.17 2395.17,1125.83 2502.5,1174.5C 2502.5,1254.83 2502.5,1335.17 2502.5,1415.5C 2489.63,1413.79 2476.8,1412.13 2464,1410.5C 2406.64,1255.39 2312.14,1128.06 2180.5,1028.5 Z"/></g>
<g><path style="opacity:1" fill="#eb3637" d="M 874.5,1152.5 C 922.276,1173.89 969.942,1195.55 1017.5,1217.5C 976.3,1277.55 942.634,1341.89 916.5,1410.5C 902.465,1411.93 888.465,1413.59 874.5,1415.5C 874.5,1327.83 874.5,1240.17 874.5,1152.5 Z"/></g>
<g><path style="opacity:1" fill="#f34445" d="M 2565.5,1203.5 C 2781.51,1302.17 2997.51,1400.84 3213.5,1499.5C 3214.49,1504.98 3214.82,1510.64 3214.5,1516.5C 2998.05,1418.11 2781.71,1319.44 2565.5,1220.5C 2565.5,1214.83 2565.5,1209.17 2565.5,1203.5 Z"/></g>
<g><path style="opacity:1" fill="#f14141" d="M 2565.5,1220.5 C 2781.71,1319.44 2998.05,1418.11 3214.5,1516.5C 3218.32,1625.85 3210.32,1734.18 3190.5,1841.5C 3028.17,1766.67 2865.51,1692.34 2702.5,1618.5C 2701.89,1618.62 2701.56,1618.96 2701.5,1619.5C 2684.74,1537.59 2639.57,1476.92 2566,1437.5C 2565.5,1365.17 2565.33,1292.83 2565.5,1220.5 Z"/></g>
<g><path style="opacity:1" fill="#e83132" d="M 199.5,1229.5 C 382.854,1313.18 566.187,1396.84 749.5,1480.5C 744.287,1486.92 738.62,1492.92 732.5,1498.5C 553.41,1415.95 374.076,1333.95 194.5,1252.5C 195.407,1244.55 197.074,1236.89 199.5,1229.5 Z"/></g>
<g><path style="opacity:1" fill="#e83030" d="M 194.5,1252.5 C 374.076,1333.95 553.41,1415.95 732.5,1498.5C 724.195,1509.09 716.361,1520.09 709,1531.5C 701.674,1543.82 695.174,1556.49 689.5,1569.5C 688.177,1567.31 686.177,1565.81 683.5,1565C 515.345,1488.75 347.345,1412.25 179.5,1335.5C 183.11,1307.46 188.11,1279.79 194.5,1252.5 Z"/></g>
<g><path style="opacity:1" fill="#e62d2e" d="M 179.5,1335.5 C 347.345,1412.25 515.345,1488.75 683.5,1565C 686.177,1565.81 688.177,1567.31 689.5,1569.5C 658.369,1658.15 670.036,1740.48 724.5,1816.5C 542.409,1733.63 360.409,1650.47 178.5,1567C 172.866,1564.68 167.199,1562.51 161.5,1560.5C 161.608,1484.88 167.608,1409.88 179.5,1335.5 Z"/></g>
<g><path style="opacity:1" fill="#ea3535" d="M 1292.5,1460.5 C 1336.68,1458.17 1370.51,1475.5 1394,1512.5C 1411.61,1546.67 1411.94,1581 1395,1615.5C 1367.23,1659.29 1327.73,1676.12 1276.5,1666C 1239.5,1655 1215,1631.17 1203,1594.5C 1191.4,1543.94 1206.9,1504.1 1249.5,1475C 1263.04,1467.43 1277.38,1462.6 1292.5,1460.5 Z"/></g>
<g><path style="opacity:1" fill="#ee3b3b" d="M 2162.5,1619.5 C 2161.94,1618.21 2160.94,1617.38 2159.5,1617C 2097.92,1588.53 2036.25,1560.37 1974.5,1532.5C 1991.69,1487.01 2024.69,1463.01 2073.5,1460.5C 2124,1462.85 2157.5,1487.85 2174,1535.5C 2182.19,1565.29 2178.36,1593.29 2162.5,1619.5 Z"/></g>
<g><path style="opacity:1" fill="#ed3939" d="M 1974.5,1532.5 C 2036.25,1560.37 2097.92,1588.53 2159.5,1617C 2160.94,1617.38 2161.94,1618.21 2162.5,1619.5C 2142.1,1651.8 2112.6,1668.46 2074,1669.5C 2024.64,1666.84 1991.3,1642.51 1974,1596.5C 1967.87,1575.07 1968.03,1553.73 1974.5,1532.5 Z"/></g>
<g><path style="opacity:1" fill="#e52b2c" d="M 161.5,1560.5 C 167.199,1562.51 172.866,1564.68 178.5,1567C 360.409,1650.47 542.409,1733.63 724.5,1816.5C 744.106,1840.78 767.106,1861.11 793.5,1877.5C 582.622,1782.06 371.955,1686.06 161.5,1589.5C 161.5,1579.83 161.5,1570.17 161.5,1560.5 Z"/></g>
<g><path style="opacity:1" fill="#e32828" d="M 161.5,1589.5 C 371.955,1686.06 582.622,1782.06 793.5,1877.5C 815.167,1890.16 838.167,1899.83 862.5,1906.5C 863.056,1992.84 863.889,2079.18 865,2165.5C 867.402,2190.2 873.568,2213.86 883.5,2236.5C 657.302,2133.23 430.969,2030.23 204.5,1927.5C 177.376,1816.51 163.043,1703.84 161.5,1589.5 Z"/></g>
<g><path style="opacity:1" fill="#f03e3f" d="M 3190.5,1841.5 C 3190.13,1847.08 3189.13,1852.41 3187.5,1857.5C 3187.53,1856.5 3187.03,1855.84 3186,1855.5C 3025.09,1782.29 2864.25,1708.96 2703.5,1635.5C 2702.51,1630.22 2701.84,1624.89 2701.5,1619.5C 2701.56,1618.96 2701.89,1618.62 2702.5,1618.5C 2865.51,1692.34 3028.17,1766.67 3190.5,1841.5 Z"/></g>
<g><path style="opacity:1" fill="#ee3c3c" d="M 2703.5,1635.5 C 2864.25,1708.96 3025.09,1782.29 3186,1855.5C 3187.03,1855.84 3187.53,1856.5 3187.5,1857.5C 3173.92,1930.84 3154.58,2002.5 3129.5,2072.5C 2963.05,1995.27 2796.39,1918.61 2629.5,1842.5C 2685.38,1785 2710.05,1716 2703.5,1635.5 Z"/></g>
<g><path style="opacity:1" fill="#e83030" d="M 1455.5,1827.5 C 1600.76,1894.36 1746.09,1961.03 1891.5,2027.5C 1869.53,2050.47 1844.19,2068.81 1815.5,2082.5C 1681.36,2020.94 1547.03,1959.6 1412.5,1898.5C 1407.02,1881.63 1404.85,1864.3 1406,1846.5C 1409.19,1837.97 1415.03,1832.14 1423.5,1829C 1434.1,1827.6 1444.77,1827.1 1455.5,1827.5 Z"/></g>
<g><path style="opacity:1" fill="#e83132" d="M 1455.5,1827.5 C 1474.17,1827.5 1492.83,1827.5 1511.5,1827.5C 1643.5,1888.17 1775.5,1948.83 1907.5,2009.5C 1902.51,2015.82 1897.18,2021.82 1891.5,2027.5C 1746.09,1961.03 1600.76,1894.36 1455.5,1827.5 Z"/></g>
<g><path style="opacity:1" fill="#e93233" d="M 1511.5,1827.5 C 1657.5,1827.33 1803.5,1827.5 1949.5,1828C 1962.09,1830.93 1969.59,1838.76 1972,1851.5C 1967.27,1911.25 1945.77,1963.92 1907.5,2009.5C 1775.5,1948.83 1643.5,1888.17 1511.5,1827.5 Z"/></g>
<g><path style="opacity:1" fill="#ec3939" d="M 2629.5,1842.5 C 2796.39,1918.61 2963.05,1995.27 3129.5,2072.5C 3119.05,2104.19 3107.05,2135.19 3093.5,2165.5C 2903.34,2078.26 2713.01,1991.26 2522.5,1904.5C 2550.24,1896.3 2575.91,1883.8 2599.5,1867C 2609.68,1858.98 2619.68,1850.81 2629.5,1842.5 Z"/></g>
<g><path style="opacity:1" fill="#e72f2f" d="M 1412.5,1898.5 C 1547.03,1959.6 1681.36,2020.94 1815.5,2082.5C 1745.07,2116.68 1672.4,2121.85 1597.5,2098C 1501.72,2063.05 1440.05,1996.55 1412.5,1898.5 Z"/></g>
<g><path style="opacity:1" fill="#ea3535" d="M 2522.5,1904.5 C 2713.01,1991.26 2903.34,2078.26 3093.5,2165.5C 3047.38,2275.13 2989.05,2377.13 2918.5,2471.5C 2913.98,2468.23 2908.98,2465.4 2903.5,2463C 2760.94,2398.65 2618.61,2333.81 2476.5,2268.5C 2500.12,2231.37 2512.29,2190.7 2513,2146.5C 2513.17,2066.5 2513.67,1986.5 2514.5,1906.5C 2517.1,1905.52 2519.76,1904.85 2522.5,1904.5 Z"/></g>
<g><path style="opacity:1" fill="#e12526" d="M 204.5,1927.5 C 430.969,2030.23 657.302,2133.23 883.5,2236.5C 890.999,2252.85 899.999,2268.18 910.5,2282.5C 678.385,2177.53 446.552,2071.86 215,1965.5C 214.601,1965.73 214.435,1966.06 214.5,1966.5C 210.409,1953.8 207.076,1940.8 204.5,1927.5 Z"/></g>
<g><path style="opacity:1" fill="#e12424" d="M 910.5,2282.5 C 960.053,2342.6 1024.05,2371.93 1102.5,2370.5C 1173.74,2403.12 1245.08,2435.78 1316.5,2468.5C 1317.3,2468.96 1317.63,2469.62 1317.5,2470.5C 1287.15,2487.53 1258.15,2506.53 1230.5,2527.5C 904.705,2379.27 579.039,2230.44 253.5,2081C 252.251,2080.26 251.251,2080.43 250.5,2081.5C 236.518,2043.88 224.518,2005.55 214.5,1966.5C 214.435,1966.06 214.601,1965.73 215,1965.5C 446.552,2071.86 678.385,2177.53 910.5,2282.5 Z"/></g>
<g><path style="opacity:1" fill="#df2122" d="M 1230.5,2527.5 C 1174.54,2571.13 1124.54,2620.8 1080.5,2676.5C 972.886,2626.69 865.219,2576.86 757.5,2527C 631.911,2470.79 506.744,2413.62 382,2355.5C 381.601,2355.73 381.435,2356.06 381.5,2356.5C 327.954,2269.73 284.287,2178.07 250.5,2081.5C 251.251,2080.43 252.251,2080.26 253.5,2081C 579.039,2230.44 904.705,2379.27 1230.5,2527.5 Z"/></g>
<g><path style="opacity:1" fill="#e83132" d="M 2476.5,2268.5 C 2618.61,2333.81 2760.94,2398.65 2903.5,2463C 2908.98,2465.4 2913.98,2468.23 2918.5,2471.5C 2914.56,2478.38 2909.9,2484.71 2904.5,2490.5C 2885.87,2480.85 2866.87,2471.69 2847.5,2463C 2718.91,2405.04 2590.58,2346.54 2462.5,2287.5C 2466.93,2280.98 2471.59,2274.65 2476.5,2268.5 Z"/></g>
<g><path style="opacity:1" fill="#e83030" d="M 2462.5,2287.5 C 2590.58,2346.54 2718.91,2405.04 2847.5,2463C 2866.87,2471.69 2885.87,2480.85 2904.5,2490.5C 2887.78,2513.27 2870.12,2535.27 2851.5,2556.5C 2851.53,2555.5 2851.03,2554.84 2850,2554.5C 2828.77,2544.8 2807.61,2534.97 2786.5,2525C 2656.92,2466.54 2527.58,2407.54 2398.5,2348C 2395.9,2346.86 2393.24,2346.03 2390.5,2345.5C 2417.83,2330.48 2441.83,2311.14 2462.5,2287.5 Z"/></g>
<g><path style="opacity:1" fill="#e62d2d" d="M 2390.5,2345.5 C 2393.24,2346.03 2395.9,2346.86 2398.5,2348C 2527.58,2407.54 2656.92,2466.54 2786.5,2525C 2807.61,2534.97 2828.77,2544.8 2850,2554.5C 2851.03,2554.84 2851.53,2555.5 2851.5,2556.5C 2802.57,2614.77 2749.23,2668.77 2691.5,2718.5C 2686.89,2715.19 2681.89,2712.35 2676.5,2710C 2469.09,2613.12 2261.09,2517.62 2052.5,2423.5C 2062.17,2413.31 2069.67,2401.64 2075,2388.5C 2076.57,2382.9 2077.74,2377.23 2078.5,2371.5C 2155.18,2370.94 2231.84,2370.11 2308.5,2369C 2337.3,2366.13 2364.63,2358.3 2390.5,2345.5 Z"/></g>
<g><path style="opacity:1" fill="#de1f20" d="M 1080.5,2676.5 C 1073.55,2686.79 1066.21,2696.79 1058.5,2706.5C 1058.42,2705.25 1057.76,2704.42 1056.5,2704C 843.559,2604.96 630.226,2506.8 416.5,2409.5C 415.893,2409.62 415.56,2409.96 415.5,2410.5C 403.17,2393.18 391.836,2375.18 381.5,2356.5C 381.435,2356.06 381.601,2355.73 382,2355.5C 506.744,2413.62 631.911,2470.79 757.5,2527C 865.219,2576.86 972.886,2626.69 1080.5,2676.5 Z"/></g>
<g><path style="opacity:1" fill="#e12526" d="M 1102.5,2370.5 C 1167.84,2370.17 1233.17,2370.5 1298.5,2371.5C 1300.21,2387.24 1306.04,2401.24 1316,2413.5C 1328.18,2427.17 1342.01,2438.83 1357.5,2448.5C 1344.14,2455.85 1330.81,2463.18 1317.5,2470.5C 1317.63,2469.62 1317.3,2468.96 1316.5,2468.5C 1245.08,2435.78 1173.74,2403.12 1102.5,2370.5 Z"/></g>
<g><path style="opacity:1" fill="#dc1c1d" d="M 1058.5,2706.5 C 1027.33,2752.48 1000.5,2801.14 978,2852.5C 970.468,2870.6 963.635,2888.93 957.5,2907.5C 902.173,2878.16 849.173,2845.16 798.5,2808.5C 758.471,2837.18 718.471,2865.84 678.5,2894.5C 643.433,2876.84 607.767,2860.01 571.5,2844C 530.87,2823.7 489.203,2804.2 446.5,2785.5C 475.825,2713.2 505.159,2640.86 534.5,2568.5C 491.767,2518.11 452.1,2465.44 415.5,2410.5C 415.56,2409.96 415.893,2409.62 416.5,2409.5C 630.226,2506.8 843.559,2604.96 1056.5,2704C 1057.76,2704.42 1058.42,2705.25 1058.5,2706.5 Z"/></g>
<g><path style="opacity:1" fill="#e52b2c" d="M 2052.5,2423.5 C 2261.09,2517.62 2469.09,2613.12 2676.5,2710C 2681.89,2712.35 2686.89,2715.19 2691.5,2718.5C 2683.86,2725.14 2676.19,2731.8 2668.5,2738.5C 2649.59,2729.05 2630.59,2719.55 2611.5,2710C 2479.98,2648.74 2348.32,2587.74 2216.5,2527C 2153.92,2498.54 2091.25,2470.37 2028.5,2442.5C 2036.48,2436.2 2044.48,2429.86 2052.5,2423.5 Z"/></g>
<g><path style="opacity:1" fill="#e42a2a" d="M 2028.5,2442.5 C 2091.25,2470.37 2153.92,2498.54 2216.5,2527C 2348.32,2587.74 2479.98,2648.74 2611.5,2710C 2630.59,2719.55 2649.59,2729.05 2668.5,2738.5C 2591.52,2803.51 2508.52,2859.84 2419.5,2907.5C 2363.64,2747.91 2267.98,2617.74 2132.5,2517C 2096.99,2491.73 2059.66,2469.23 2020.5,2449.5C 2019.17,2448.83 2019.17,2448.17 2020.5,2447.5C 2023.18,2445.81 2025.85,2444.14 2028.5,2442.5 Z"/></g>
<g><path style="opacity:1" fill="#da1819" d="M 446.5,2785.5 C 489.203,2804.2 530.87,2823.7 571.5,2844C 607.767,2860.01 643.433,2876.84 678.5,2894.5C 662.5,2905.83 646.5,2917.17 630.5,2928.5C 630.631,2927.62 630.298,2926.96 629.5,2926.5C 571.771,2898.49 513.105,2870.99 453.5,2844C 453.833,2843.67 454.167,2843.33 454.5,2843C 445.428,2838.92 436.428,2834.76 427.5,2830.5C 433.595,2815.32 439.928,2800.32 446.5,2785.5 Z"/></g>
<g><path style="opacity:1" fill="#d81617" d="M 427.5,2830.5 C 436.428,2834.76 445.428,2838.92 454.5,2843C 454.167,2843.33 453.833,2843.67 453.5,2844C 513.105,2870.99 571.771,2898.49 629.5,2926.5C 630.298,2926.96 630.631,2927.62 630.5,2928.5C 516.154,3011.5 401.488,3094.16 286.5,3176.5C 332.774,3061.23 379.774,2945.9 427.5,2830.5 Z"/></g>
</svg>
