<?xml version="1.0" encoding="UTF-8"?>
<!DOCTYPE svg PUBLIC "-//W3C//DTD SVG 1.1//EN" "http://www.w3.org/Graphics/SVG/1.1/DTD/svg11.dtd">
<svg xmlns="http://www.w3.org/2000/svg" version="1.1" width="344px" height="322px" style="shape-rendering:geometricPrecision; text-rendering:geometricPrecision; image-rendering:optimizeQuality; fill-rule:evenodd; clip-rule:evenodd" xmlns:xlink="http://www.w3.org/1999/xlink">
<g><path style="opacity:0.999" fill="#fa5050" d="M 163.5,3.5 C 204.088,21.79 244.755,40.1233 285.5,58.5C 290.572,64.3043 294.905,70.6376 298.5,77.5C 245.844,53.8393 193.177,30.1726 140.5,6.5C 147.946,4.85523 155.612,3.85523 163.5,3.5 Z"/></g>
<g><path style="opacity:0.987" fill="#fb5252" d="M 163.5,3.5 C 212.957,2.96074 253.624,21.2941 285.5,58.5C 244.755,40.1233 204.088,21.79 163.5,3.5 Z"/></g>
<g><path style="opacity:0.996" fill="#f84c4c" d="M 140.5,6.5 C 193.177,30.1726 245.844,53.8393 298.5,77.5C 305.696,88.2319 311.03,99.8985 314.5,112.5C 294.833,103.833 275.167,95.1667 255.5,86.5C 257.891,82.7527 259.891,78.7527 261.5,74.5C 260.848,69.181 257.848,66.181 252.5,65.5C 244.29,68.3376 242.29,73.6709 246.5,81.5C 199.377,60.4383 152.377,39.105 105.5,17.5C 116.514,12.0524 128.181,8.38569 140.5,6.5 Z"/></g>
<g><path style="opacity:0.998" fill="#f54747" d="M 105.5,17.5 C 152.377,39.105 199.377,60.4383 246.5,81.5C 247.496,81.4142 248.329,81.7476 249,82.5C 249.5,93.8284 249.667,105.162 249.5,116.5C 241.108,113.033 232.775,109.367 224.5,105.5C 223.893,105.624 223.56,105.957 223.5,106.5C 210.799,96.3159 196.465,89.6493 180.5,86.5C 178.384,84.38 175.384,82.5467 171.5,81C 138.922,66.2003 106.255,51.7003 73.5,37.5C 73.1667,37.5 72.8333,37.5 72.5,37.5C 82.3271,29.0781 93.3271,22.4114 105.5,17.5 Z"/></g>
<g><path style="opacity:0.996" fill="#f14141" d="M 72.5,37.5 C 72.8333,37.5 73.1667,37.5 73.5,37.5C 107.503,53.8318 141.837,69.6651 176.5,85C 175.263,85.2321 174.263,85.7321 173.5,86.5C 156.657,85.2946 140.99,88.9613 126.5,97.5C 124.49,94.9725 121.823,93.1392 118.5,92C 109.252,87.8642 99.9183,84.0309 90.5,80.5C 94.391,72.6148 92.0577,67.6148 83.5,65.5C 76.5518,67.0451 73.8852,71.3784 75.5,78.5C 74.5318,76.3926 74.1984,74.0593 74.5,71.5C 65.9248,68.418 57.5915,64.7513 49.5,60.5C 56.1667,51.8333 63.8333,44.1667 72.5,37.5 Z"/></g>
<g><path style="opacity:1" fill="#f34444" d="M 73.5,37.5 C 106.255,51.7003 138.922,66.2003 171.5,81C 175.384,82.5467 178.384,84.38 180.5,86.5C 178.167,86.5 175.833,86.5 173.5,86.5C 174.263,85.7321 175.263,85.2321 176.5,85C 141.837,69.6651 107.503,53.8318 73.5,37.5 Z"/></g>
<g><path style="opacity:0.998" fill="#ee3c3c" d="M 49.5,60.5 C 57.5915,64.7513 65.9248,68.418 74.5,71.5C 74.1984,74.0593 74.5318,76.3926 75.5,78.5C 76.4812,80.3092 77.9812,81.6426 80,82.5C 80.4995,88.4908 80.6662,94.4908 80.5,100.5C 65.6223,93.5612 50.6223,86.8946 35.5,80.5C 39.6868,73.4461 44.3534,66.7794 49.5,60.5 Z"/></g>
<g><path style="opacity:0.998" fill="#ec3939" d="M 35.5,80.5 C 50.6223,86.8946 65.6223,93.5612 80.5,100.5C 80.5,104.167 80.5,107.833 80.5,111.5C 64.1616,104.166 47.8283,96.8322 31.5,89.5C 32.5612,86.3777 33.8946,83.3777 35.5,80.5 Z"/></g>
<g><path style="opacity:0.987" fill="#ee3c3c" d="M 90.5,80.5 C 99.9183,84.0309 109.252,87.8642 118.5,92C 121.823,93.1392 124.49,94.9725 126.5,97.5C 119.904,102.088 113.57,107.088 107.5,112.5C 100.38,109.773 93.3795,106.773 86.5,103.5C 86.3337,96.825 86.5004,90.1583 87,83.5C 88.0391,82.2899 89.2058,81.2899 90.5,80.5 Z"/></g>
<g><path style="opacity:0.992" fill="#f54747" d="M 255.5,86.5 C 275.167,95.1667 294.833,103.833 314.5,112.5C 318.301,124.511 320.301,136.844 320.5,149.5C 298.953,139.226 277.286,129.226 255.5,119.5C 255.5,108.5 255.5,97.5 255.5,86.5 Z"/></g>
<g><path style="opacity:0.998" fill="#ea3435" d="M 31.5,89.5 C 47.8283,96.8322 64.1616,104.166 80.5,111.5C 80.6665,122.172 80.4998,132.839 80,143.5C 77.6721,144.999 75.5054,146.666 73.5,148.5C 72.1767,146.314 70.1767,144.814 67.5,144C 51.4288,136.924 35.4288,129.757 19.5,122.5C 21.9411,110.835 25.9411,99.8354 31.5,89.5 Z"/></g>
<g><path style="opacity:0.969" fill="#ec3939" d="M 86.5,103.5 C 93.3795,106.773 100.38,109.773 107.5,112.5C 105.542,115.792 103.209,118.792 100.5,121.5C 96.1465,118.657 91.4799,116.323 86.5,114.5C 86.5,110.833 86.5,107.167 86.5,103.5 Z"/></g>
<g><path style="opacity:0.997" fill="#f24343" d="M 249.5,116.5 C 249.5,124.5 249.5,132.5 249.5,140.5C 248.022,140.762 246.689,140.429 245.5,139.5C 240.401,126.956 233.068,115.956 223.5,106.5C 223.56,105.957 223.893,105.624 224.5,105.5C 232.775,109.367 241.108,113.033 249.5,116.5 Z"/></g>
<g><path style="opacity:0.942" fill="#eb3636" d="M 86.5,114.5 C 91.4799,116.323 96.1465,118.657 100.5,121.5C 96.9994,127.168 93.9994,133.168 91.5,139.5C 89.9547,140.452 88.288,140.785 86.5,140.5C 86.5,131.833 86.5,123.167 86.5,114.5 Z"/></g>
<g><path style="opacity:0.992" fill="#f14141" d="M 255.5,121.5 C 277.083,131.361 298.75,141.027 320.5,150.5C 321.117,162.786 320.117,174.786 317.5,186.5C 317.762,185.022 317.429,183.689 316.5,182.5C 301.258,175.629 286.091,168.629 271,161.5C 270.768,162.737 270.268,163.737 269.5,164.5C 268.828,154.823 264.328,147.49 256,142.5C 255.5,135.508 255.334,128.508 255.5,121.5 Z"/></g>
<g><path style="opacity:1" fill="#e83030" d="M 19.5,122.5 C 35.4288,129.757 51.4288,136.924 67.5,144C 70.1767,144.814 72.1767,146.314 73.5,148.5C 71.5756,150.695 69.9089,153.028 68.5,155.5C 51.3943,148.448 34.3943,141.115 17.5,133.5C 17.9111,129.779 18.5778,126.112 19.5,122.5 Z"/></g>
<g><path style="opacity:0.997" fill="#e62d2d" d="M 17.5,133.5 C 34.3943,141.115 51.3943,148.448 68.5,155.5C 65.1237,166.285 67.1237,175.952 74.5,184.5C 55.0428,176.522 35.8762,167.856 17,158.5C 16.7216,159.416 16.2216,160.082 15.5,160.5C 15.372,151.418 16.0386,142.418 17.5,133.5 Z"/></g>
<g><path style="opacity:1" fill="#f34445" d="M 255.5,119.5 C 277.286,129.226 298.953,139.226 320.5,149.5C 320.5,149.833 320.5,150.167 320.5,150.5C 298.75,141.027 277.083,131.361 255.5,121.5C 255.5,120.833 255.5,120.167 255.5,119.5 Z"/></g>
<g><path style="opacity:0.985" fill="#ea3435" d="M 126.5,145.5 C 138.595,145.743 142.428,151.41 138,162.5C 130.872,168.341 124.872,167.341 120,159.5C 118.709,153.087 120.876,148.42 126.5,145.5 Z"/></g>
<g><path style="opacity:0.99" fill="#ed3a3b" d="M 203.5,145.5 C 215.595,145.743 219.428,151.41 215,162.5C 207.872,168.341 201.872,167.341 197,159.5C 195.709,153.087 197.876,148.42 203.5,145.5 Z"/></g>
<g><path style="opacity:0.998" fill="#e32828" d="M 74.5,184.5 C 77.501,186.667 80.8343,188.334 84.5,189.5C 85.048,200.575 86.048,211.575 87.5,222.5C 65.1667,212.5 42.8333,202.5 20.5,192.5C 17.546,182.168 15.8793,171.501 15.5,160.5C 16.2216,160.082 16.7216,159.416 17,158.5C 35.8762,167.856 55.0428,176.522 74.5,184.5 Z"/></g>
<g><path style="opacity:0.998" fill="#ee3c3c" d="M 317.5,186.5 C 316.46,193.329 314.793,199.995 312.5,206.5C 295.833,198.833 279.167,191.167 262.5,183.5C 267.386,178.183 269.719,171.85 269.5,164.5C 270.268,163.737 270.768,162.737 271,161.5C 286.091,168.629 301.258,175.629 316.5,182.5C 317.429,183.689 317.762,185.022 317.5,186.5 Z"/></g>
<g><path style="opacity:1" fill="#e72f30" d="M 146.5,182.5 C 160.32,188.91 173.987,195.577 187.5,202.5C 179.284,210.398 169.617,212.565 158.5,209C 147.069,204.107 141.069,195.607 140.5,183.5C 142.396,182.534 144.396,182.201 146.5,182.5 Z"/></g>
<g><path style="opacity:0.995" fill="#e93233" d="M 146.5,182.5 C 162.837,182.333 179.17,182.5 195.5,183C 196.607,190.965 193.94,197.465 187.5,202.5C 173.987,195.577 160.32,188.91 146.5,182.5 Z"/></g>
<g><path style="opacity:0.993" fill="#ec3939" d="M 262.5,183.5 C 279.167,191.167 295.833,198.833 312.5,206.5C 311.406,209.682 310.072,212.682 308.5,215.5C 290.403,207.619 272.403,199.453 254.5,191C 253.207,190.51 251.873,190.343 250.5,190.5C 254.76,188.7 258.76,186.367 262.5,183.5 Z"/></g>
<g><path style="opacity:0.995" fill="#ea3535" d="M 250.5,190.5 C 251.873,190.343 253.207,190.51 254.5,191C 272.403,199.453 290.403,207.619 308.5,215.5C 304.277,226.956 298.277,237.289 290.5,246.5C 276.356,239.597 262.022,232.93 247.5,226.5C 248.32,224.188 249.153,221.854 250,219.5C 250.5,209.839 250.666,200.172 250.5,190.5 Z"/></g>
<g><path style="opacity:1" fill="#e12425" d="M 20.5,192.5 C 42.8333,202.5 65.1667,212.5 87.5,222.5C 91.3101,229.797 97.3101,234.297 105.5,236C 113.521,236.168 121.521,236.668 129.5,237.5C 130.592,240.094 132.259,242.261 134.5,244C 130.138,246.844 125.805,249.677 121.5,252.5C 89.7524,236.616 57.7524,221.949 25.5,208.5C 22.9239,203.552 21.2573,198.219 20.5,192.5 Z"/></g>
<g><path style="opacity:0.999" fill="#df2122" d="M 121.5,252.5 C 116.167,257.167 111.167,262.167 106.5,267.5C 103.898,265.19 100.898,263.357 97.5,262C 78.1385,253.569 58.9718,244.736 40,235.5C 39.5357,236.094 39.369,236.761 39.5,237.5C 33.5175,228.533 28.8508,218.867 25.5,208.5C 57.7524,221.949 89.7524,236.616 121.5,252.5 Z"/></g>
<g><path style="opacity:1" fill="#e83030" d="M 247.5,226.5 C 262.022,232.93 276.356,239.597 290.5,246.5C 288.889,250.051 286.556,253.051 283.5,255.5C 272.871,249.519 261.871,244.019 250.5,239C 246.332,236.911 241.998,235.411 237.5,234.5C 241.097,232.244 244.431,229.577 247.5,226.5 Z"/></g>
<g><path style="opacity:0.999" fill="#e62d2d" d="M 237.5,234.5 C 241.998,235.411 246.332,236.911 250.5,239C 261.871,244.019 272.871,249.519 283.5,255.5C 279.167,261.833 273.833,267.167 267.5,271.5C 265.572,269.526 263.239,268.026 260.5,267C 241.937,258.768 223.604,250.268 205.5,241.5C 205.751,239.83 206.418,238.33 207.5,237C 217.613,236.997 227.613,236.164 237.5,234.5 Z"/></g>
<g><path style="opacity:1" fill="#de1f20" d="M 106.5,267.5 C 106.573,269.027 105.906,270.027 104.5,270.5C 101.227,267.856 97.5599,265.689 93.5,264C 76.7027,255.932 59.7027,248.432 42.5,241.5C 41.0256,240.564 40.0256,239.23 39.5,237.5C 39.369,236.761 39.5357,236.094 40,235.5C 58.9718,244.736 78.1385,253.569 97.5,262C 100.898,263.357 103.898,265.19 106.5,267.5 Z"/></g>
<g><path style="opacity:0.998" fill="#dc1c1d" d="M 42.5,241.5 C 59.7027,248.432 76.7027,255.932 93.5,264C 97.5599,265.689 101.227,267.856 104.5,270.5C 100.922,276.653 97.589,282.986 94.5,289.5C 89.3343,286.752 84.3343,283.752 79.5,280.5C 75.1319,283.22 70.7986,285.887 66.5,288.5C 59.2413,284.374 51.5746,281.041 43.5,278.5C 46.8848,271.351 49.8848,264.018 52.5,256.5C 48.9121,251.654 45.5788,246.654 42.5,241.5 Z"/></g>
<g><path style="opacity:1" fill="#e52b2c" d="M 205.5,241.5 C 223.604,250.268 241.937,258.768 260.5,267C 263.239,268.026 265.572,269.526 267.5,271.5C 267.167,272.5 266.5,273.167 265.5,273.5C 247.533,264.185 229.199,255.352 210.5,247C 209.251,246.26 208.251,246.427 207.5,247.5C 205.364,246.597 203.364,245.431 201.5,244C 202.693,242.905 204.027,242.072 205.5,241.5 Z"/></g>
<g><path style="opacity:0.997" fill="#e4292a" d="M 207.5,247.5 C 208.251,246.427 209.251,246.26 210.5,247C 229.199,255.352 247.533,264.185 265.5,273.5C 258.427,279.555 250.76,284.888 242.5,289.5C 236.328,275.359 227.328,263.192 215.5,253C 212.953,250.946 210.286,249.113 207.5,247.5 Z"/></g>
<g><path style="opacity:0.997" fill="#d91617" d="M 43.5,278.5 C 51.5746,281.041 59.2413,284.374 66.5,288.5C 54.1834,297.97 41.6834,307.303 29,316.5C 33.4999,303.812 38.3333,291.145 43.5,278.5 Z"/></g>
</svg>
